# xmcd
#
# Track frame offsets:
#	150
#	20700
#	31267
#	41246
#	53879
#	65671
#	78898
#	90644
#	101879
#	111996
#	123263
#	131889
#	141200
#	153777
#	166155
#	178887
#	192254
#	203285
#	214304
#	225308
#
# Disc length: 3159 seconds
#
# Revision: 1
# Processed by: cddbd v1.4PL0 Copyright (c) Steve Scherf et al.
# Submitted via: audiograbber 1.81.03
#
DISCID=170c5514
DTITLE=Various Artist - Country Roads vol. 4
DYEAR=1999
DGENRE=Country
TTITLE0=John Denver - Rocky Mountain High
TTITLE1=Dolly Parton - (It Wasn't God Who Made) Honky Tonk Angels
TTITLE2=Anne Murray - It's All Over
TTITLE3=Susan Raye - L. A. International Airport
TTITLE4=Don David jr. - Cowboy On The Run
TTITLE5=Bobby Bare - Detroit City
TTITLE6=Glen Campbell and Ben Findon - Mr. Mac
TTITLE7=Johnny Cash - Mean Eyed Cat
TTITLE8=Willie Nelson - On The Road Again
TTITLE9=Don Williams - Follow Me Back To Louisville
TTITLE10=Conway Twitty - Blue Is The Way I Feel
TTITLE11=George Jones - World's Worst Lover
TTITLE12=Freddy Fender - Silver Wings
TTITLE13=Bobby Helms - Fraulein
TTITLE14=Lee Hazlewood - These Boots Are Made For Walking
TTITLE15=Tennessee - Kentucky Sundown
TTITLE16=Carl Perkins - Dixiefriend
TTITLE17=Hank Locklin - Send Me The Pillow That You Dream On
TTITLE18=Connie Francis - My Heart Has A Mind Of It's Own
TTITLE19=Everly Brothers - Cathy's Clown
EXTD=
EXTT0=
EXTT1=
EXTT2=
EXTT3=
EXTT4=
EXTT5=
EXTT6=
EXTT7=
EXTT8=
EXTT9=
EXTT10=
EXTT11=
EXTT12=
EXTT13=
EXTT14=
EXTT15=
EXTT16=
EXTT17=
EXTT18=
EXTT19=
PLAYORDER=
